<?xml version="1.0" encoding="UTF-8"?>
<svg id="Universität_Zürich" data-name="Universität Zürich" xmlns="http://www.w3.org/2000/svg" width="42.5609994mm" height="14.4999998mm" version="1.1" viewBox="0 0 120.6453543 41.1023622">
  <defs>
    <style>
      .cls-1 {
        fill: #fff;
        stroke-width: 0px;
      }
    </style>
  </defs>
  <path class="cls-1" d="M5.8165504,27.9131051c-.4456959.1907468-.5277528.2265759-.6189803.2723858-.0974634.0483692-.1341199.092473-.1132965.1974861.004163.0258481.0224955.0774589.0404015.1183211.0137515.0324167.015415.0524639-.0054085.0607387-.020414.0092132-.034993-.0082748-.053735-.053317-.0666505-.1549178-.137046-.3431908-.174948-.4314837-.029994-.0699519-.1178775-.2515709-.1632865-.356584-.018742-.0441038-.0216595-.067478-.0012455-.0757528.0204055-.0092132.034157.0058009.0466545.0357437.013743.0317343.024159.0483692.0449825.0808712.048736.0732789.1087155.074985.2136859.0365968.096218-.0341229.1786929-.0690988.6243888-.2598457l.4102934-.1758181c.4252904-.1832398.5677448-.3448969.6231433-.538203.052063-.1790598.0058265-.3181958-.0370745-.4181758-.0549805-.1291551-.1641139-.2699119-.3315634-.3365368-.2303464-.092473-.4981768.0116018-.7997548.1416099l-.3665564.156624c-.4456959.1915999-.5281708.2265759-.6193898.2723858-.097054.0491369-.1337105.092473-.112887.1974861.0041715.0266158.0224955.0774589.0362385.1099609.0137515.031649.015415.0524639-.004999.060824-.0204055.0091279-.0349845-.0092132-.052899-.0508431-.0637245-.14997-.1341199-.338243-.135374-.3407169-.0154065-.035829-.1032985-.2165949-.1520344-.3298828-.0179145-.0408621-.0208235-.064151,0-.0725111.0204055-.0091279.033739.0058009.048736.0407768.013743.032502.024577.0492222.0454005.081639.048318.0725111.1082975.074985.2136859.0366821.096218-.0341229.1782749-.0699519.6239708-.2606987l.3136574-.1341882c.3257369-.1399038.6852043-.2557509,1.0021887-.09998.2678389.131629.3907154.3291151.4723629.5190089.066642.1558562.1782749.4406969.07664.738163-.0708135.2073817-.2399264.4115218-.6652168.5939939l-.4277814.1832398ZM5.6949194,24.653262c.2415899-.0591179.3136574-.117468.3219834-.184946.0070805-.056644-.0029175-.1166149-.013743-.1666049-.0074985-.0341229-.005835-.0541701.013325-.0583501.024577-.0049478.0370745.021668.0466545.0650041.044573.2024339.062479.3291151.0753945.388233.006253.028322.0479.1724058.083311.334916.008744.0399238.0120795.0690988-.016251.074985-.018742.0040947-.029158-.0133932-.0358205-.0441891-.008744-.0407768-.024159-.0958-.0462365-.1365768-.042901-.0758381-.135792-.068331-.4077854-.0125402l-1.85027.3773989c-.062479.0133079-.1082975.0133079-.1149685-.017488-.00749-.0342082.0266585-.070805.0712315-.1366621.0320755-.04581.4361159-.6314437.7880933-1.1854285.165368-.2583101.5219264-.777319.5602463-.84147l-.0037535-.0149288-1.3920681.338243c-.189527.0441038-.2424259.0857337-.2570049.1673727-.0083345.0508431.007908.124975.017488.1691641.0083345.0374499.001672.0516108-.01707.0557909-.024995.0058009-.035411-.028322-.045827-.074985-.0354025-.1615718-.0591435-.3132479-.0733045-.3781667-.0079165-.0350612-.0429095-.1508231-.0766485-.3041201-.008744-.0407768-.0124975-.0724258.0124975-.0774589.018742-.0041801.0320755.0124548.0404015.04999.006671.0307959.0120795.0557909.029994.0907668.043737.082492.1149685.092473.2899079.057497l1.9735645-.3973608c.068314-.0150141.0991355-.0083601.1053885.0191941.0074985.0349759-.0183325.0799328-.045409.1215627-.1436999.2366421-.4644379.7256228-.7139443,1.1196567-.2624219.414081-.5756528.844797-.6227253.9138958l.0020815.0092132,1.3012671-.3216081ZM4.1553893,21.8008459c-.4840159.0307959-.5731533.035829-.6747883.0491369-.10747.0133079-.159951.0482839-.171203.1190888-.00749.035829-.007908.0775442-.0054085.1158471.0020815.031649-.0033355.0507578-.02874.0524639-.0191685.0016208-.0270765-.0232889-.030412-.0741319-.0074985-.120795-.0108255-.3223758-.0166605-.4148488-.004999-.0791651-.0262405-.2665849-.034157-.3878064-.0024995-.0412887.0024995-.067478.0216595-.0687576.025413-.0017061.0329115.0170614.034993.0491369.0016635.031649.0066625.0570705.0154065.0949469.02125.0850513.0770665.107487.1891089.1058662.102053,0,.1911904-.0050331.6752148-.035829l.5606558-.035829c.3090764-.0191941.5602463-.0349759.6964563-.056644.0853925-.0150141.141209-.0408621.1478715-.1370886.003745-.0449569.005417-.1153353.0024995-.1628514-.0020815-.0354025.0062445-.0516108.0224955-.0528904.0220775-.0012796.033321.0237154.0354025.0586913.0133335.209941.0166605.4107541.0220775.4974261.004581.0732789.0266585.2732389.0349845.4006878.0024995.0407768-.0054085.064151-.027904.0650041-.0158245.0016208-.0262405-.010834-.02874-.0492222-.0029175-.0474308-.0120795-.0849659-.019996-.1132879-.0166605-.0632979-.072059-.0790798-.16495-.082492-.134956-.0074217-.3861259.0083601-.6952023.0275542l-.5606644.035829ZM3.4726845,20.3687944c-.179529.0620183-.2182669.1140557-.2574229.2265759-.0158245.0470896-.01916.0978473-.0204055.1232689-.0020815.0291751-.0120795.0378764-.0312395.0366821-.025413-.0017061-.026249-.0366821-.0233315-.0845394.010834-.1687376.0320755-.34993.038738-.4611706.005417-.0795063.005417-.2332298.015833-.3923277.0024995-.0383882.0108255-.0729376.033321-.071658.0220775.0016208.0274945.0212415.0254045.04999-.002909.0507578-.002909.0987004.014579.1254015.0141695.0232889.035829.0345494.064569.0361702.0416555.0025592.1324565-.0203884.2499244-.057497l1.4807961-.4556256.0008275-.0125402c-.3415614-.1590979-1.3404231-.6389507-1.5457746-.7285233-.0404015-.0187676-.087056-.0345494-.115796-.0362555-.025413-.0016208-.0520715.0092132-.063315.0375352-.014997.0374499-.0212415.0849659-.024159.1261693-.0016635.0287485-.0066625.0541701-.02874.0525492-.025413-.0012796-.029994-.0304547-.0262405-.0908521.0104075-.1595244.028322-.292433.0308215-.3336364.003745-.0541701.003745-.2045666.00958-.3003666.0029175-.0412034.010834-.0661984.033321-.0649188.0220775.0011943.0270765.020815.024995.0528904-.0016635.031649-.0062445.0982739.028322.1582448.025831.043336.0770665.0946057.2753374.1933061.2915714.1433161.4577754.2403103.8384928.4373699.4519404.2336564.7897568.4057209.9442907.4856538.179529.0946057.229101.1170414.2261834.1616571-.0024995.0412034-.048318.057497-.2016064.1086813l-1.9973054.6777655ZM4.3749103,17.5454681c-.4744359-.1020274-.5615004-.120795-.6627173-.1362356-.1074614-.0162084-.1628685-.0020474-.2065969.0962265-.01167.0233742-.026249.0758381-.035829.1195154-.0074985.0346347-.017488.0516961-.039156.0470896-.022069-.0049478-.023323-.0278954-.013325-.0745585.0179145-.0845394.0404015-.1741119.05748-.2519974.020414-.0807859.038738-.1515909.048318-.1953534.02125-.09998.154952-.7210162.1645319-.7809872.006253-.0603975.010834-.1116671.009998-.1378564.000418-.0162937-.004999-.0371086-.0016635-.0529758.0033355-.0153553.0162425-.0157818.0320755-.0124548.0216595.0046066.0558165.028322.1974349.068331.030412.0099809.166622.04581.2024425.0599709.014997.006654.032485.0166349.027486.0387295-.004581.021668-.0212415.0245685-.0495635.0187676-.0216595-.0050331-.0753945-.0133932-.116214-.0054597-.0608155.0096397-.1049705.0329286-.1574515.1845194-.0174965.0521227-.0941365.378252-.10747.4406969-.0033355.0158671.004581.0238007.0266585.028322l.7893388.1700172c.0216595.0045213.034575.0040947.038738-.0145875.014997-.0687576.092055-.427389.1012255-.5007531.00958-.0761793.0104075-.1248897-.014579-.1595244-.020414-.0274689-.0333295-.0432507-.029994-.0586913.0024995-.0125402.010834-.0203884.029576-.0166349.018742.0040947.0662325.0274689.2224299.0741319.062061.0162084.184528.0524639.2066054.0570705.024577.0053744.0591435.0128814.052899.0407768-.004581.0220946-.018324.0258481-.034157.0220946-.0316575-.003327-.072059-.0121136-.11496-.0112605-.0658145.0021327-.121631.0354025-.1591235.1482639-.018742.0579236-.0883015.3661384-.1045525.4411234-.003327.0154406.0087525.0212415.0270765.0254215l.2465889.0528904c.1062245.0229476.3923789.0875252.4836064.1037335.2165949.0404356.2740834.0004265.3428069-.3177692.0174965-.0812977.045409-.2120736.025413-.3012196s-.077476-.1407568-.2007704-.1903203c-.0329115-.0133079-.044155-.0225211-.039574-.0441891.005835-.024995.030412-.0195353.0616515-.0128814.071641.0154406.2786644.085819.3378079.1149941.0762305.039156.0703955.067478.044573.1857137-.04999.2340829-.093309.4044413-.1249665.5377764-.0349845.1329086-.0591435.2291351-.0791395.3228024-.0074985.0342082-.0220775.1028805-.0349845.178292-.015833.071658-.0266585.1541501-.04041.2165949-.008744.0408621-.0224955.0603975-.0445645.0557909-.015415-.003327-.0220775-.0179145-.0141695-.0553644.009998-.046663.0120795-.0853925.01167-.1149941.0008275-.0649188-.064151-.0953734-.152043-.1274489-.1278755-.0437626-.3744644-.096653-.6614633-.1582448l-.5489943-.1178945ZM4.9663961,15.2486577c-.4523669-.174965-.5356693-.2070405-.6335593-.2382629-.1032985-.0329286-.159951-.0274689-.2190944.0624449-.014997.021668-.0374925.0712315-.053735.1129467-.0124975.032502-.025413.0482839-.0462365.0399238-.020832-.0078483-.018742-.0312224-.0016635-.0757528.061225-.1579036.1424545-.3415699.1666134-.4044413.039156-.1008331.1178775-.3307359.1532885-.4227824.072477-.1875052.1674409-.3802994.3398894-.4981939.088728-.0616771.2865809-.1220746.4861059-.0446157.2203484.0849659.3869619.2553244.5148373.6506378.4356979-.1362356.7801768-.239116,1.0321827-.3431908.2370175-.09998.3053229-.214121.3315719-.2553244.018324-.0304547.032067-.0563027.0412375-.0800181.009162-.0237154.022487-.0320755.037484-.0262746.023741.0092132.0216595.0320755.0079165.0679045l-.1095515.2828786c-.064151.1666049-.107888.2353625-.179529.2965277-.1178775.1016862-.3015779.1603775-.5952308.2386895-.209523.0554497-.4648644.1145675-.5248439.135809-.023323.0079336-.033321.0245685-.0412375.0453834l-.106216.256604c-.005835.0150141-.0033355.0262746.014579.0333551l.0416555.0157818c.2770009.1070605.5119284.1979126.6427213.231609.0899735.0241419.1624505.031649.2086869-.0528904.023323-.042483.0545625-.1053544.0683055-.1411834.0091705-.0238007.0229135-.032502.0374925-.0267011.0208235.0083601.0216595.032502.0070805.0712315-.06706.1724911-.160787.3895126-.1782749.4340429-.021668.0562174-.0853925.2473908-.131629.3665649-.014997.0387295-.0316575.0562174-.052481.0478573-.014997-.0058009-.0191685-.020815-.005417-.056644.0170785-.0449569.0249865-.0828333.029576-.1115818.0108255-.064151-.048736-.1045866-.130793-.14997-.1191315-.0632979-.3540589-.1541501-.6281423-.259931l-.5235899-.2024339ZM5.3375335,14.9883002c.032485.0129667.046646.0112605.0637245-.0062274.044991-.0541701.08831-.1399891.11705-.2145475.0462365-.1190888.049154-.1624249.0312395-.2307559-.0308215-.1144822-.1345379-.2540448-.3786359-.3482239-.4223644-.1637045-.6527108.0691841-.7206068.2444904-.02874.0745585-.0466545.1291551-.049154.1625102-.0020815.0232889.0074985.0336963.0312395.0429095l.9051433.3498447ZM7.2161169,13.6612617c-.0449825.0332698-.0633065.0336963-.1245399-.0008531-.1528705-.0866721-.3128214-.192453-.3557224-.2203484-.039992-.0262746-.0658145-.0521227-.053317-.0741319.014579-.024995.0408195-.0137345.062897-.0008531.0362385.0203884.100799.042483.1557794.0549378.2399264.0558762.4082119-.0653453.5056839-.2374099.1416184-.2498647.0416555-.4681658-.1049705-.5515109-.13621-.0774589-.2874084-.1082548-.5985663.0200472l-.1724485.070805c-.4119569.1695054-.6660443.1648988-.8909737.0374499-.3049049-.1736854-.3794719-.5531317-.160369-.9388908.102471-.1807659.1961894-.2815137.2565869-.3423377.019996-.021668.0362385-.0308812.0553985-.0200472.0362385.0204737.1103875.0775442.3265729.19996.061225.0349759.0787215.0557909.066224.0778855-.0112435.0196207-.032485.018341-.0658145-.0004265-.0249865-.014161-.1187135-.0491369-.2240934-.0320755-.0762305.0121136-.2053514.0450422-.3078224.2253816-.116632.2053344-.068314.3982139.0982995.4923077.1278755.0725111.2611679.064151.5664994-.0670514l.1024624-.0445303c.4431964-.192453.7022828-.2028605.9663682-.053317.160787.0911934.3174109.2611253.3344809.5347907.009998.189126-.053317.3590579-.1366194.5057009-.091637.1612306-.1820285.274945-.3019959.3645176ZM7.1428125,11.0257819c-.3919694-.2861203-.4640284-.3386695-.5502483-.3940338-.0912275-.0583501-.1541245-.0645775-.2082689-.017488-.02874.0228623-.0553985.0545113-.077894.0853925-.01916.0258481-.035411.0374499-.0562345.0224358-.015415-.0111752-.005417-.0357437.024577-.0770324.071641-.0978473.1978529-.2548978.2524239-.3294563.047064-.0645775.149953-.2220546.2215939-.3203284.024577-.0333551.044573-.04999.059988-.039156.0208235.0154406.014579.0345494-.0041715.0603975-.018742.0258481-.0312395.0482839-.048736.0829186-.037902.0790798-.009162.131629.077476.2024339.07873.0653453.150789.1182357.5427498.4040148l.4536124.3311625c.2503424.182472.4536124.3311625.5723258.4015409.0749765.0429095.1345124.0586913.2012226-.010834.031649-.032502.078312-.0853925.106634-.1241219.0203884-.028322.0374499-.0354025.0507578-.0262746.0179145.0133932.0104075.0395825-.0099809.0679045-.1241219.1699319-.2507434.3269824-.3015609.3965931-.043319.0591179-.1537065.2274289-.229101.3303094-.024577.0336963-.0454005.04581-.063315.0328433-.012907-.0095544-.013325-.0253362.00958-.0562174.0279125-.0387295.045409-.0732789.0570705-.1004065.0274945-.0591179-.004999-.106634-.074149-.1686523-.0991355-.0920464-.3024054-.2407369-.5527393-.4232089l-.4536124-.3307359ZM7.9292337,8.8773206l-.3174024.3540248c-.1224585.139136-.1632779.2057609-.144954.2886795.0124975.0557909.029576.0936673.043737.1161884.014161.0220946.0170785.0374499.003745.0516108-.0154065.0162937-.0312395.0100662-.056644-.014161-.0374925-.0349759-.2066054-.2786132-.2207664-.3007078-.023741-.0354025-.0308215-.0553644-.0179145-.0690988.0174965-.0187676.062479-.0200472.122049-.0737907.0703955-.0603975.1582875-.1445104.2307644-.2212015l.8672327-.9180076c.0703955-.074149.1115988-.131629.1399208-.170785.0258481-.0416555.0388148-.0645605.0475161-.073731.0150141-.0162425.0312224-.0054085.0661984.0274945.0487957.0458185.2020927.2041059.2624902.2611679.020815.024159.0303694.0416555.0170614.0558165-.017488.0183325-.0333551.0120795-.0703784-.018324l-.0275542-.0216595c-.0645775-.0524895-.1886995-.0512355-.3885998.150789l-.2828359.2857364.9509873.8980286c.2132679.2016662.3965078.374925.5073218.4574171.0712315.0541701.1353825.0882929.2103675.0274689.0354025-.0278954.0882929-.0745585.1212215-.1091079.0241419-.0258481.0416299-.0308812.053317-.0196207.0166349.0154406.0058009.0404356-.018341.0654306-.1445957.153297-.2895326.2927742-.3506978.3577783-.0504165.053317-.181619.2061874-.2691441.299087-.028322.0300281-.0507578.0395825-.0670514.0241419-.0116871-.010834-.0099809-.0266158.0162937-.0545113.0332698-.0346347.0545113-.0667102.0699519-.0921317.0341229-.0553644-.003327-.1173827-.064151-.1878464-.0866721-.1037335-.2699119-.2765659-.4831798-.4781467l-.9505608-.8980286ZM10.3514286,8.4857351c-.0125402.0099895-.0137345.01916-.006654.037902l.1498847.4639857c.0246538.0820655.0600563.1521027.0837716.1820455.035829.0450422.0841129.0592032.1615718-.0024739l.0375352-.0296016c.0299428-.0237154.0412034-.024995.053317-.0099809.0157818.0199619.0049478.0371086-.0225211.0587766-.0799328.0637245-.1932208.1416099-.2703384.2032017-.0274689.0220946-.1586713.139136-.2886795.242443-.0319902.0258481-.0511843.0329286-.0670514.0129667-.0120283-.0150141-.0058009-.0279808.014161-.0437626.0220946-.0179145.0554497-.0483692.0733642-.0666249.1028805-.106634.082492-.2291351.0328433-.3936926l-.6235101-2.0655853c-.0274689-.0962265-.0345494-.135792-.0095544-.15537.0224358-.0179145.0553644-.0074985.1257428.0299855.1695907.0895555,1.3800142.7885113,1.8419525,1.0405172.274092.1487075.374072.126212.4365168.096636.043336-.0220775.0829186-.0495635.1125202-.073731.0199619-.0158245.0345494-.023323.0482839-.0058265.0162084.019996-.0024739.042901-.0945204.116632-.0899991.071641-.2720446.2165949-.4753316.3707194-.0470043.033321-.0766058.0574885-.0907668.0400005-.0121136-.0150141-.0058862-.027921.0170614-.0504165.0133079-.018742.0128814-.0553985-.0232889-.0753945l-.6215481-.3694654c-.0145022-.0083345-.0261893-.0074985-.0387295.0024995l-.5560322.4436144ZM10.7609031,7.9550648c.0120283-.009998.0087013-.0191685.0003412-.024577l-.7159831-.4373699c-.0104075-.0079165-.0229476-.018324-.0304547-.0124975-.0074217.006253-.0024739.0224955.0029858.034575l.259931.7964193c.0058009.0120795.014161.0174965.0241419.00958l.4590379-.3661299ZM12.4178243,7.9342327c-.0549378.0070805-.0715727-.0016635-.1074017-.062061-.089146-.151207-.1758181-.3224014-.1991069-.3678019-.021668-.0429095-.0313077-.077894-.0092132-.0908095.0245685-.014579.0417152.0083345.0550231.0304035.020815.035411.0661984.0866465.107487.1253845.1807659.1670315.3865268.145372.5564587.0445645.2473908-.1466174.2686323-.3852984.182472-.5310884-.0795916-.1341199-.19578-.2361729-.5290751-.2794919l-.1848606-.023741c-.4415499-.0574885-.659851-.1874455-.79148-.4098754-.1790598-.3015779-.0549378-.6681343.3265559-.8943092.178292-.1058065.309921-.146626.392413-.169531.0278954-.0091705.046663-.0091705.0579236.009998.0212415.0358205.0574117.1216224.1845194.3357264.0354025.0603975.0403503.087474.018341.1003895-.0191941.0112435-.0371086-.000418-.0567293-.0329115-.0145022-.024995-.0786532-.101635-.1786332-.1391189-.0720846-.0274945-.2003866-.062897-.3786786.042901-.203287.120377-.256604.3115674-.1590979.4760993.074985.126212.1949269.184946.5248097.2228479l.1112406.0120795c.4798529.0529075.7101822.1724485.8647588.4327889.0940938.1595329.1462165.3844624.024995.6306418-.0849659.1686949-.224102.2844909-.3694654.3711374-.1591832.0941365-.2941391.1482809-.4432561.1657774ZM29.0802778,5.6166074l-.4169815-.2299284c-.1628514-.0883015-.2369833-.1132965-.3136745-.07664-.0516108.024995-.0849659.0499815-.103307.068732-.0186823.018742-.0332698.0249865-.04999.0154065-.0191088-.0112435-.0166349-.028322.0012796-.058734.0258481-.0437285.2253816-.2636674.2436373-.2828274.0291751-.0308215.0470896-.042483.0638098-.032485.0220093.012907.0332698.056644.0987004.1024624.074985.054989.1765859.121631.267438.174948l1.0900551.6398038c.0878664.0516535.1537235.0791395.1978273.09789.0462365.0158245.071658.023323.082492.029576.0191941.0116615.0124548.0295675-.0116871.070805-.0341229.057898-.1537235.2428439-.19578.3144934-.0191088.0262405-.0341229.0395655-.0507578.0295675-.021668-.012907-.0191941-.0299855.0024739-.072895l.0150141-.0316575c.0361702-.0749765.0070805-.1957714-.2345094-.3448884l-.3419965-.2120225-.6623249,1.1288187c-.1486904.2532599-.2765659.4706909-.3323568.5973208-.0366821.081639-.0558762.1520344.0203884.2116044.0354025.027904.0928995.0691415.1336763.0933005.0304547.0179145.039156.034157.0313077.0479-.0112605.0191685-.0379617.014579-.068331-.003327-.181619-.106216-.3503566-.2166035-.427389-.2615859-.0632979-.0370745-.2415899-.130793-.3515509-.195362-.035829-.0208235-.0504165-.0408195-.039156-.0599795.0079336-.013743.0241419-.015415.0570705.0037535.0412034.0245685.0774589.03832.1057809.047064.0612506.0216595.1132879-.029158.1683111-.1041345.081639-.10747.2090879-.3253189.3582048-.5785703l.6623249-1.1284092ZM30.5181303,7.4310569c.3161484-.3678019.374072-.4356979.4360903-.5173454.0654306-.08622.0795916-.1416184.014161-.2270109-.0149288-.0216595-.0540847-.05957-.0882929-.08831-.0266158-.022905-.0370233-.0404015-.0220093-.057062.014161-.0170785.0354025-.0074985.0715727.023741.128302.1103875.274945.2482609.3474561.3107399.0578383.0495635.2165949.1736939.3040348.2482524.035829.031248.0491369.050408.0341229.0674865-.014161.0170785-.0332698.00958-.0569852-.011252-.0267011-.023323-.043336-.033321-.0766912-.053317-.0758381-.044155-.1303494-.01916-.2078083.0612335-.071658.073313-.1295816.141209-.44573.5090109l-.2907269.3390619c-.3012196.3511414-.3578636.5590094-.3224611.7576898.032502.1828133.134956.2882529.217448.3590579.106634.0911934.2665849.1695054.4465831.1557709.2473908-.0187676.4414646-.2307559.6555856-.4798529l.259931-.3023969c.3157219-.3682199.374072-.4361159.4357491-.5173454.0657718-.086638.0795063-.1420364.014161-.2274289-.0154406-.0216595-.0541701-.059152-.0808712-.082475-.0266158-.0224955-.0370233-.0399835-.0224358-.0566525.014161-.0170785.0354025-.00749.0690988.021668.1236954.105798.2699119.2440894.2723858.2461709.0291751.024995.1879317.1487075.2824521.2295104.0337816.029158.046663.048318.0320755.0653965s-.0333551.00958-.0624449-.0154065c-.0267011-.0229135-.0429095-.0329115-.0762646-.0529075-.0758381-.0441465-.1307759-.0195695-.2082348.0608155-.0712315.073313-.1295816.141209-.4453035.5094033l-.2224811.2587367c-.2303294.2686323-.5022887.5314637-.8551191.5314637-.2986604,0-.4956347-.1228423-.6531117-.2577983-.128302-.1103875-.3544513-.3170015-.3940338-.6286286-.0278954-.2169873.0336963-.4752377.3348307-.8263791l.303267-.3536409ZM32.9370153,9.7090656c.3777402-.3040348.4469243-.3598257.5227624-.4290098.0803594-.0728523.1040748-.1245485.0553644-.220775-.010834-.0237154-.042483-.0682457-.0703784-.1028805-.0220946-.0274689-.0291751-.0462365-.0116871-.0603975.017488-.0137345.0366821-.0004265.0661984.0366821.1062927.131629.2245285.2940538.2670115.3461765.067478.0845394.2274289.2673527.289106.3448969.1261693.1565387.2453434.3348307.2615518.5431508.0087866.1074017-.0383029.3090679-.2044813.4431708-.1840929.1478373-.4148488.206614-.8209963.1199419-.09998.4453035-.1833251.794807-.2190688,1.0654866-.032502.2549831.0324167.370745.0549378.414081.0170614.031649.032502.0557909.0482839.0758381.0162937.0199619.0167202.035829.0041801.04581-.0199619.0157818-.0387295.0024739-.0628714-.0274689l-.1899791-.235789c-.1120083-.139136-.1494582-.2116471-.1666049-.3041201-.0290897-.1528705.0116871-.3411434.0912787-.6343442.056644-.2095144.1332498-.459891.1449369-.5219093.0049478-.0245685-.0050331-.0417152-.0187676-.0592032l-.1690788-.2199219c-.0099809-.0124548-.020815-.0157818-.0362555-.0041801l-.0345494.028322c-.2311824.185799-.427389.3441291-.5219946.4403556-.0657718.0653453-.1082548.1245485-.0582648.2069552.024995.0412887.064151.09998.0878664.1300081.0162937.0195353.0166349.035829.0041801.04581-.017488.0137345-.0387295.0024739-.0650041-.0300281-.1157618-.1440838-.256604-.3340629-.2865468-.3715128-.0378764-.0470896-.1712115-.1974861-.2511443-.2966131-.0262746-.032502-.032502-.0557909-.0154406-.0699519.0124548-.0099809.0278954-.0058009.0520374.0237154.0300281.0371086.0587766.0629567.081639.081639.04999.0417152.1149941.0099809.1949269-.0378764.114141-.071658.310774-.2299028.539056-.414081l.4377964-.3519774ZM32.9765978,10.1602552c-.0275542.0224358-.0333551.0349759-.0267011.0586913.0245685.0661984.0770324.146643.1270224.2086614.0804447.0995535.1162737.1237807.1845194.142463.1145675.0308812.2866321.010834.4906869-.153297.3528305-.2840729.2665849-.5997948.1486904-.7464378-.0499047-.0620183-.0887195-.1049278-.1161884-.1236954-.0187676-.0133079-.032502-.0104075-.0524639.0054597l-.7555657.6081549ZM34.6272916,12.0396576c.4178345-.2461965.4944404-.2915799.5794063-.3486504.0899991-.0603975.120795-.1158471.0987004-.1845194-.0095544-.0349759-.0278954-.0720846-.0470043-.1050131-.0167202-.0274689-.0204737-.0474308.0011943-.0603975.0167202-.0095544.0349759.0092132.0612506.053317.0612506.1045866.1549178.2824521.2020074.3620437.0404356.0686723.1445104.2261493.2061874.3303094.020815.0357437.028322.0611652.0116871.070805-.021668.0128814-.0371086-.0004265-.053317-.0278954-.0162937-.0275542-.0320755-.0479426-.056644-.0775442-.057497-.0661984-.117468-.060824-.2165949-.0095544-.0912787.0462365-.1683111.0920464-.5860603.3378164l-.4836064.2853525c-.2665849.1570505-.4840329.2852672-.5957.3657119-.0690988.0520374-.107487.1004065-.0699519.1894672.017488.0417152.0475161.1050131.0720846.146643.017488.0300281.017488.0487957.0037535.056644-.0191941.0116871-.0404356-.0058009-.0583501-.035829-.106634-.1811924-.2008131-.3590579-.2444904-.4336164-.0371086-.0628714-.1474961-.2315237-.2120736-.3415699-.0212415-.0357437-.0241419-.0599709-.0049478-.0712315.0137345-.0078483.028322-.0016208.0474308.0308812.0246538.0416299.0496488.0712315.0696107.0928995.043336.0482839.09998.0370233.1845194-.0012796.1232689-.0545966.3407169-.182472.6073018-.3394373l.4836064-.2853525ZM34.3907348,14.0698831c.1341029-.3936926.4323368-.6069606.7185423-.7251963.2003012-.0829186.5735201-.1649841.950066.010834.2820255.131629.5161084.3628114.6977274.8022287.0758381.1828133.1091079.2965277.1474108.4394173.0317343.1183211.0441891.2232489.071658.3157219.0104075.0333551.0008531.0512696-.0170614.0587766-.0237154.0095544-.0624449.0154406-.1678845.0520374-.09998.0346347-.2606987.1045866-.3223758.1229276-.0453834.0153553-.071658.0191088-.082492-.0070805-.0095544-.0238007.0116871-.039156.0528904-.056644.0899991-.0404356.1774389-.121648.2236754-.2270024.0629567-.1399891.0475161-.4028205-.0649188-.674012-.1062074-.2561774-.2403956-.3973608-.4119484-.4785733-.2862056-.1333351-.5894726-.0733642-.8755929.0449569-.7014809.2899591-.8285033.9672128-.6652254,1.3620997.1083401.2624049.2037135.4094744.388233.4714928.0766058.0267011.178292.0300281.235789.0196207.0507578-.0104075.0649188-.0096397.0748997.0137345.0083601.020815-.0095544.0354025-.0332698.0449569-.0349759.0145875-.3061675.0853925-.4186023.0975061-.0563027.0058009-.0758381,0-.1171268-.0416299-.0961412-.0983592-.2095144-.3136745-.2873999-.502374-.1670315-.4036736-.2190688-.7793664-.0969943-1.1437986ZM36.4904857,16.4599343c.4731989-.1062074.5602122-.1257428.6585714-.1544913.1045013-.0296016.1486904-.0658571.1474108-.1736854.0004265-.0262746-.0079336-.0800181-.0179145-.1233542-.0079336-.0341229-.0058009-.0545113.0158671-.0591179.0220946-.0050331.0332698.0154406.0436773.0620183.0187676.0841982.035829.174965.0537435.2528505.0150141.081639.0278954.1541501.0375352.1974861.0224358.09998.1615718.7193101.1778655.7776602.0195353.0579236.0370233.1062074.0487104.1295816.006654.0149288.0203884.031649.0237154.0474308.0037535.0154406-.0082748.0212415-.0237154.024995-.021668.0046066-.0624449-.0024739-.2078936.0203884-.0319902.0037535-.1703584.028322-.2090879.0304547-.0162084.0004265-.0361702-.0017061-.0412034-.0233742s.0091279-.031649.0370233-.0378764c.0220946-.0046066.0742172-.0199619.1079136-.0437626.0512696-.0345494.081639-.0741319.0654306-.2340829-.0054597-.0541701-.0729376-.3823468-.0870986-.4448769-.003327-.0153553-.014161-.0195353-.035829-.0145875l-.7876412.1770977c-.0220946.0049478-.0337816.010834-.0296016.0290897.0154406.0687576.0958.4265359.1183211.4969996.0229476.0732789.0429095.1178945.0803594.139136.0296016.0162084.0479426.0249097.0516961.0403503.0029004.0125402-.0012796.0233742-.0200472.0274689-.0186823.0041801-.0712315.0029858-.2328033.0262746-.0632979.010834-.1899791.0296016-.2116471.0345494-.0249097.0054597-.0591179.0133932-.0653453-.0149288-.0050331-.021668.0062274-.0308812.021668-.0342082.0303694-.0099809.0712315-.0191088.1095344-.0378764.0586913-.0296016.0958-.0837716.0820655-.2012396-.0070805-.0607387-.0733642-.3698919-.0899991-.4444504-.003327-.0153553-.0166349-.0157818-.0354025-.0116018l-.24577.0553644c-.1057809.0237154-.3931808.0849659-.4827533.1083401-.2132679.0540847-.2486704.1144822-.1774389.4323368.0179145.0807859.0475161.2116471.1028805.2840729.0557909.0725111.1295816.0953734.2619783.0882929.0354025-.0011943.0495635.0021327.0545966.0238007.0053744.024995-.0195353.0303694-.0508431.0378764-.071658.0157818-.2885942.0383029-.3544513.0366821-.085819-.003327-.0920464-.031649-.1187476-.14997-.0524639-.2333151-.0845394-.4057209-.1115818-.5406769-.0241419-.134956-.042483-.2324621-.0632979-.3257028-.007507-.0342082-.0233742-.1029658-.0429095-.1766712-.0162937-.071658-.0404356-.1511643-.0545966-.2136945-.0091279-.0403503-.0050331-.064151.0170614-.0690988.0154406-.0037535.0278954.006654.0362555.0441038.0104075.046663.024995.0829186.0375352.1096197.0261893.0591179.0982739.0595444.1915999.0516108.1341029-.0137345.3802994-.0691841.6664197-.1332498l.5481839-.1233542ZM35.9031458,19.1832805c-.2486704.0150141-.3298828.0595444-.3498447.1241219-.017488.0550231-.018341.1158471-.0167202.1666049.0012796.0349759-.0041801.0545966-.0232889.0550231-.0258481.0008531-.0333551-.0274689-.0345494-.0720846-.007507-.2074671-.0025592-.3353425-.0046066-.39574-.0008531-.0287485-.0158671-.1782067-.021668-.3440438-.0017061-.0412034.0008531-.0703784.0291751-.0712315.0191088-.0008531.0266158.018341.0274689.04999.0017061.0416299.006654.0987004.020815.1428895.0287485.0820655.121648.0916199.399067.0849659l1.8886156-.0378764c.064151-.0025592.1091079.0058009.1099609.0374499.0011943.0349759-.039156.0650041-.0946057.121648-.0400091.0395825-.5427243.5427243-.9884542,1.0247098-.2090879.224102-.6531117.6710262-.7022487.7268171l.0004265.0162937,1.430772-.082492c.1941591-.0099809.2541301-.0412887.2833051-.1187476.017488-.0487104.0145022-.124975.0128814-.1695054-.0012796-.0383029.0079336-.0516961.0270424-.0520374.0254215-.0012796.0300281.0336963.031649.0812124.0058862.1657518.0017061.3194754.0041801.3865268.0008531.0349759.0150141.1557709.0203884.3123949.0012796.0416299-.0003412.0732789-.0261893.0741319-.0191941.0008531-.0291751-.0179145-.0307959-.0562174-.0008531-.0320755-.0017061-.057497-.0125402-.0953734-.0291751-.0882929-.096653-.1116671-.2757128-.1083401l-2.013164.035829c-.0699519.0025592-.0991269-.0087013-.1004065-.0378764-.0011943-.0349759.032502-.0745585.0666249-.1103875.1841782-.2078936.5873399-.630676.9039148-.9742933.3324421-.3594844.7181158-.7276702.7768924-.7872146l-.0004265-.0096397-1.3379577.082492ZM35.474989,22.1265487c.0295163-.0475161.0465777-.0550231.1157618-.0449569.1741119.0257628.3615318.0649188.4115218.0757528.0470896.0100662.0804447.0242272.0766912.0492222-.0037535.0290897-.032502.0274689-.0579236.0241419-.0412034-.0058862-.1091079-.0025592-.1653253.0049478-.2437226.035829-.3557309.209941-.3837117.4057209-.0407768.2840729.131629.4506778.299087.474905.1550031.0224358.3070205-.0041801.5498901-.2366421l.1345294-.1291551c.3215227-.3082148.5597857-.3965078.8155366-.3598257.3474561.04999.5548379.3765459.4919665.8155366-.0296016.2049931-.0800181.3332951-.114141.4123749-.0104075.0275542-.0220946.0417152-.0441891.0383029-.0412034-.0058009-.1307759-.031649-.3769724-.0666249-.0695253-.0099809-.0932407-.0232889-.0899138-.0482839.003327-.0225211.0232889-.0291751.0615918-.0233742.028322.003327.128302.0017061.2200072-.0524639.0666249-.039156.1748797-.1166149.2040548-.3223758.0337816-.2333151-.081639-.3948869-.2711915-.4223558-.1453634-.020815-.2661584.035829-.5027152.2699119l-.0791651.0790798c-.3419965.3399491-.5794063.4448769-.8792611.4015409-.1833251-.0257628-.3911334-.1265958-.5069805-.3756928-.078312-.1724058-.081639-.3531717-.057497-.5206297.0267011-.1833251.0691841-.3216081.1483492-.449057ZM36.4300882,24.8348809c.4665449.131629.5527052.1557709.6522587.1774389.1062927.0233742.1670315.007507.2016662-.0557909.0186823-.0307959.0328433-.0699519.0432507-.106634.0087866-.0307959.0200472-.0475161.0446157-.0408621.018341.0058862.017488.031649.0037535.0808712-.0329286.1166149-.096653.3073618-.1220746.3965078-.021668.0766058-.0632979.259931-.096653.3765459-.0111752.0400091-.0241419.0632979-.042483.0583501-.0245685-.007507-.0257628-.0275542-.0170614-.0583501.0087866-.0307959.0129667-.0557909.0170614-.0949469.0079336-.0866721-.0374499-.1258281-.1432307-.1624249-.0962265-.0342082-.1820455-.0583501-.6485905-.1899791l-.5402503-.153297c-.2978074-.0841129-.5402503-.1524439-.6756328-.1774389-.0853925-.014161-.146643-.0083601-.184946.0799328-.018341.0417152-.0436773.107487-.056644.153297-.0095544.0342082-.0232889.046663-.0383029.042483-.021668-.0058009-.0241419-.0332698-.0145875-.067478.057497-.2024339.1212215-.3931808.1445104-.4765259.0200472-.0699519.0658571-.2657319.1004065-.3890007.0112605-.0400091.0262746-.0583501.0479426-.0524639.0153553.0041801.0212415.0191088.010834.056644-.0133932.0449569-.017488.0841129-.0191941.1132879-.0050331.0650041.0420564.0982739.128302.132482.1245485.0516108.3669915.1199419.6647988.2040548l.5402503.153297ZM34.5511123,25.9595707c.0407768-.0383882.0591179-.0400091.1236954-.0125402.1611453.0691841.3315037.157477.3769724.1799981.0429095.0224358.0712315.0449569.0611652.0682457-.0111752.0267011-.039156.018341-.0624449.007507-.0378764-.0157818-.1045866-.0307959-.160804-.0374499-.2444904-.0291751-.3982139.1091079-.4765259.2907269-.114141.2632579.0087866.4690189.164131.5364968.1433161.0616771.2970396.0766058.592373-.0849659l.1636192-.0882929c.3907922-.2132679.6439839-.2366421.8810525-.1333351.3219493.139136.4369434.5081748.2611253.9147488-.082492.1907468-.1648988.3007078-.2182158.3681858-.0171467.0242272-.032502.0349759-.0529758.0258481-.0378764-.0166349-.1178092-.0650041-.3460912-.164131-.064151-.0274689-.0841982-.046663-.0737054-.0699519.0087013-.0199619.0299428-.021668.0653453-.0058009.0262746.010834.1232689.0357437.2258081.0074217.074985-.0199619.1991069-.067478.2815137-.2573717.0937526-.2165949.024995-.403247-.1507378-.4789998-.134956-.0583501-.2665849-.0350612-.5556909.128302l-.0970796.0549378c-.4194554.2399691-.6759741.278272-.9542461.157477-.1699319-.0733642-.3440438-.224955-.3902803-.4948669-.0304547-.1874199.014161-.3623849.0812124-.5181558.0732789-.1691641.1507378-.292433.260784-.3940338ZM11.7647126,35.6357078c-.0212415,0-.0474308-.0016208-.0974208-.0157818-.0454687-.0125402-.0603975-.0491369-.0771177-.1583301l-.1624249-1.0663397c-.007507-.0407768-.0287485-.0657718-.0550231-.067478-.0253362.0008531-.0445303.020815-.0595444.0508431l-.4668862.9488717-.4661184-.9363316c-.0233742-.0475161-.042483-.0633832-.0679045-.0633832-.0254215.0008531-.0441891.024995-.0487104.056644l-.1766712,1.1280168c-.007507.057497-.0270424.1191741-.060824.1199419-.0278954.003327-.039156.003327-.0528904.003327-.021668,0-.0416299.0100662-.0429095.031649,0,.0284073.0287485.0342082.046663.0342082.0579236,0,.1437426-.0058009.1770124-.0058009.0313077,0,.1129467.0058009.1886995.0058009.024995,0,.0558762-.003327.0570705-.0342082-.0024739-.0232889-.0224358-.0307959-.0429095-.031649-.0145875,0-.0295163-.0016208-.0599709-.007507-.0296016-.006654-.0429095-.0133079-.043336-.0365968,0-.0274689.0021327-.0491369.0063127-.0791651l.0803594-.6364768c.0599709.1225011.1495435.306594.1619983.335769.0212415.0507578.1629367.3132479.2054197.3931808.0299428.0516961.0462365.0908521.0841129.0949469.0336963-.0024739.0437626-.0266158.0841129-.1057809l.3678445-.7389308.0940938.7097557c.0021327.0150141.0029004.0275542.0029004.0366821.0004265.020815-.0024739.0199619-.0016208.021668-.0128814.0041801-.0287485.0116871-.0296016.031649.0021327.024995.0245685.0333551.0666249.0349759.071658.0041801.324935.0116871.370745.0116871.0262746-.0008531.0570705-.0024739.060824-.0342082-.0016208-.0249097-.0245685-.031649-.0429095-.031649ZM13.2221857,34.5677472c-.2007278-.2024339-.5060422-.2008131-.7289498-.2008131-.1078283,0-.2365568.003327-.2907269.003327-.0504165,0-.1645575-.003327-.2577983-.003327-.024995,0-.0525492.0017061-.0554497.0300281.0012796.024995.0254215.0333551.0449569.0333551.0254215,0,.0563027.0016208.0671367.0049478.0549378.018341.0607387.0241419.0666249.0807859.0024739.0541701.0024739.1025392.0024739.3649441v.3040348c0,.1590979,0,.2949069-.0083601.3665649-.006654.0508431-.0149288.0732789-.0416299.0791651-.0150141.003327-.0336963.0049478-.0595444.0049478-.0262746,0-.0429095.0167202-.0429095.0333551.0008531.024995.0258481.032502.0491369.032502.0371086,0,.081639-.0017061.1241219-.0041801.042483,0,.081639-.0016208.1012596-.0016208.0437626,0,.1086813.0040947.1794863.0099809.0712315.0041801.1486904.0099809.2145475.0099809.3327833,0,.5256628-.1232689.6094345-.2074671.1040748-.1016008.1994482-.2699119.1994482-.4914546,0-.2091732-.0812124-.3574371-.1732589-.449057ZM13.1101774,35.0659411c0,.1765859-.0362555.3257028-.146643.4173227-.1050131.0866721-.2199219.114141-.3807259.114141-.1382829.0008531-.2049078-.0374499-.2220546-.0624449-.0095544-.0099809-.0166349-.0733642-.017488-.114141-.0020474-.0342082-.0045213-.1666049-.0045213-.349077v-.217448c0-.135809,0-.2781867.0024739-.3365368.0017061-.018341,0-.0150141.0128814-.021668.007507-.0058009.0700372-.0116871.1045866-.010834.139136,0,.3294563.017488.4898338.160804.0762646.0657718.1616571.2040548.1616571.4198819ZM14.8017334,35.345834c-.0238007-.0008531-.0349759.0225211-.0362555.046663-.0054597.028322-.0291751.0766058-.0579236.1082548-.0666249.0741319-.1474108.0866721-.3057409.0866721-.2328033-.0008531-.5418712-.189126-.5422977-.5906669,0-.167458.0320755-.3290298.1595244-.438223.0778855-.0657718.1728323-.0940938.3278355-.0940938.1619983,0,.2786132.042483.3348307.0974208.0421417.0417152.0629567.09998.0650041.1508231,0,.020815.0037535.0491369.0329286.0508431.0307959-.0025592.0366821-.032502.0387295-.056644.0020474-.0349759.0020474-.1307759.0062274-.1866521.0037535-.060824.0079336-.0799328.0079336-.096653.0017061-.017488-.0162084-.0341229-.0395825-.0341229-.0516108-.006654-.1103875-.0191941-.1778655-.0291751-.081639-.0099809-.14997-.018341-.2624049-.018341-.2682058,0-.4435973.070805-.5760794.1866521-.174965.156624-.214121.363238-.214121.4840329,0,.1690788.0475161.3698919.228282.5206297.1661784.1399891.3773989.1908322.6231689.1908322.1166149,0,.2528505-.0100662.328262-.0400091.031649-.010834.0482839-.028322.0553644-.0599709.0191941-.0616771.0387295-.2091732.0387295-.2333151-.0004265-.018341-.0079336-.042483-.0345494-.0449569ZM16.2333584,35.345834c-.0241419-.0008531-.0349759.0225211-.0371086.046663-.0045213.028322-.0287485.0766058-.0570705.1082548-.0670514.0741319-.1474108.0866721-.3060821.0866721-.2328886-.0008531-.54153-.189126-.542383-.5906669,0-.167458.032502-.3290298.1595244-.438223.078312-.0657718.1729176-.0940938.3278355-.0940938.1619983,0,.2786985.042483.3353425.0974208.0416299.0417152.0624449.09998.0645775.1508231,0,.020815.0040947.0491369.0328433.0508431.0313077-.0025592.0366821-.032502.0387295-.056644.0021327-.0349759.0021327-.1307759.0063127-.1866521.0037535-.060824.0078483-.0799328.0082748-.096653.0008531-.017488-.0166349-.0341229-.0399238-.0341229-.0516961-.006654-.1103875-.0191941-.1778655-.0291751-.081639-.0099809-.14997-.018341-.2620636-.018341-.2686323,0-.4440238.070805-.5765059.1866521-.1748797.156624-.2140357.363238-.2140357.4840329-.0004265.1690788.0474308.3698919.2286232.5206297.1662637.1399891.3769724.1908322.6227424.1908322.1166149,0,.253277-.0100662.3286885-.0400091.0312224-.010834.0482839-.028322.0549378-.0599709.0187676-.0616771.0387295-.2091732.039156-.2333151-.0004265-.018341-.0082748-.042483-.0345494-.0449569ZM17.6645569,35.345834c-.0237154-.0008531-.0349759.0225211-.0365968.046663-.0050331.028322-.0287485.0766058-.057497.1082548-.0670514.0741319-.1474961.0866721-.3061675.0866721-.2324621-.0008531-.54153-.189126-.5419565-.5906669,0-.167458.031649-.3290298.1591832-.438223.078312-.0657718.1728323-.0940938.3281767-.0940938.1616571,0,.2786985.042483.334916.0974208.0416299.0417152.0628714.09998.0645775.1508231,0,.020815.0041801.0491369.0329286.0508431.0312224-.0025592.0370233-.032502.0387295-.056644.0020474-.0349759.0020474-.1307759.0062274-.1866521.0041801-.060824.0079336-.0799328.0079336-.096653.0016208-.017488-.0158671-.0341229-.039156-.0341229-.0516961-.006654-.1103875-.0191941-.178292-.0291751-.0812124-.0099809-.1495435-.018341-.2619783-.018341-.2682911,0-.4440238.070805-.5765059.1866521-.1745385.156624-.214121.363238-.214121.4840329,0,.1690788.0479426.3698919.2287085.5206297.1661784.1399891.3769724.1908322.6227424.1908322.1170414,0,.2531917-.0100662.3281767-.0400091.031649-.010834.0483692-.028322.0554497-.0599709.0191088-.0616771.0387295-.2091732.039156-.2333151-.0004265-.018341-.0079336-.042483-.0346347-.0449569ZM24.5711965,35.6357078c-.0150141,0-.0429095-.0016208-.0645775-.0091279-.0365968-.0116871-.0615918-.0274689-.0903403-.064151-.0420564-.0508431-.3236554-.49572-.3919865-.5997948l.2903003-.3965931c.0545966-.0757528.0879517-.1190888.1200272-.1265958.0237154-.0058009.0453834-.0091279.0615918-.0091279.0212415,0,.0420564-.0116871.0429095-.0333551-.0016208-.0267011-.0274689-.0307959-.0470896-.0307959-.0678192,0-.1411834.0040947-.1744532.0040947-.0342082,0-.1178945-.0040947-.1875052-.0040947-.0245685,0-.0511843.0040947-.0528904.0307959.0008531.0241419.0220946.0333551.0366821.0333551.014161,0,.0378764,0,.0524639.0049478.0154406.003327.020815.0125402.020815.0150141,0,.0099809-.0053744.0333551-.0186823.0549378-.0275542.0450422-.1666902.24995-.228282.3408022-.067478-.1116671-.1370886-.2258081-.2116471-.356584-.0091279-.0158671-.0170614-.039156-.0166349-.043336,0-.0016208.0017061-.007507.0137345-.010834.0125402-.003327.0307959-.0049478.039156-.0049478.018341,0,.0420564-.0083601.0429095-.0333551-.0016208-.0267011-.028322-.0307959-.0512696-.0307959-.067478,0-.1774389.0040947-.2011543.0040947-.0849659,0-.2287085-.0040947-.2719593-.0040947-.021668.0007678-.0470896.0007678-.0508431.0290897,0,.018341.0137345.0350612.032502.0350612.0162084,0,.0436773.003327.0712315.0116018.0586913.0191941.0916199.0516961.1361503.1199419l.3090679.4824121-.3431908.4639857c-.0616771.0833451-.0862456.106634-.1345294.1199419-.0241419.0058862-.0504165.007507-.0612506.007507-.020815.0008531-.0383029.0150141-.0387295.0350612,0,.020815.020815.0307959.0407768.0307959h.0308812c.0291751,0,.1166149-.0058009.14997-.0058009.0441038,0,.1615718.0058009.1728323.0058009h.032502c.0228623,0,.0495635-.003327.0508431-.0307959-.0017061-.021668-.0179145-.0333551-.0366821-.0350612-.0129667,0-.0267011-.0016208-.0387295-.0016208-.010834,0-.0196207-.007507-.0200472-.014161-.0004265-.0008531-.0004265-.0024739-.0004265-.0024739-.0003412-.0125402.0083601-.035829.0246538-.060824l.2498647-.3866121c.078312.128302.171638.2833051.2699119.4432561.0037535.0058009.0041801.0099809.0041801.0116018.0004265.003327-.0016208.003327-.0016208.003327-.0187676.0041801-.0350612.0175733-.0350612.0366821.0054597.031649.032502.0300281.0766912.032502.146643.0041801.289106.0041801.3320155.0041801h.0528904c.020815,0,.046663-.0058009.0491369-.032502-.0008531-.020815-.0191941-.0333551-.0371086-.0333551ZM26.0878727,35.6357078c-.0150141,0-.042483-.0016208-.0645775-.0091279-.0371086-.0116871-.0612506-.0274689-.0904256-.064151-.0420564-.0508431-.3236554-.49572-.3923277-.5997948l.2907269-.3965931c.0545113-.0757528.0882929-.1190888.1199419-.1265958.0237154-.0058009.0449569-.0091279.0616771-.0091279.021668,0,.042483-.0116871.042483-.0333551-.0008531-.0267011-.0275542-.0307959-.046663-.0307959-.067478,0-.1408421.0040947-.174965.0040947-.0336963,0-.117468-.0040947-.1865668-.0040947-.024995,0-.0516961.0040947-.053317.0307959.0007678.0241419.0224358.0333551.0365968.0333551s.0375352,0,.0524639.0049478c.0158671.003327.0212415.0125402.0204737.0150141.0004265.0099809-.0050331.0333551-.018341.0549378-.0274689.0450422-.1666049.24995-.228282.3408022-.067478-.1125202-.1370033-.2258081-.2115618-.356584-.0096397-.0158671-.0171467-.039156-.0162937-.043336,0-.0016208.0012796-.006654.0133079-.010834.0129667-.003327.0304547-.0049478.039156-.0049478.018341,0,.0421417-.0083601.0429095-.0333551-.0016208-.0267011-.0278954-.0307959-.0511843-.0307959-.0670514,0-.1774389.0040947-.2008131.0040947-.0853925,0-.2290498-.0040947-.2723858-.0040947-.021668.0007678-.046663.0007678-.0508431.0290897,0,.018341.014161.0350612.032502.0350612.0166349,0,.0441891.003327.0712315.0116018.0586913.0191941.0916199.0516961.1362356.1199419l.3090679.4824121-.3432761.4639857c-.0615918.0833451-.0861602.106634-.1345294.1199419-.0245685.0058862-.0504165.007507-.060824.007507-.0212415.0008531-.0387295.0150141-.039156.0350612,0,.020815.020815.0307959.0408621.0307959h.0303694c.0296016,0,.1170414-.0058009.1503966-.0058009.0441891,0,.1612306.0058009.1728323.0058009h.032502c.0229476,0,.0491369-.003327.0512696-.0307959-.0021327-.021668-.018341-.0333551-.0371086-.0350612-.0128814,0-.0266158-.0016208-.0383029-.0016208-.0112605,0-.0199619-.006654-.0203884-.014161,0-.0008531-.0004265-.0024739-.0004265-.0024739,0-.0125402.0082748-.035829.0245685-.060824l.2495235-.3866121c.0787385.128302.1715527.2833051.2703384.4432561.0037535.0058009.0040947.0099809.0040947.0116018.0004265.0025592-.0020474.003327-.0020474.003327-.018341.0041801-.0345494.0175733-.0345494.0366821.0053744.031649.032502.0300281.0770324.032502.1462165.0041801.2886795.0041801.331589.0041801h.0524639c.021668,0,.0470896-.0058009.0491369-.032502-.0004265-.020815-.018341-.0333551-.0365968-.0333551ZM27.6044637,35.6357078c-.0150141,0-.0429095-.0016208-.0645775-.0091279-.0366821-.0116871-.0612506-.0274689-.0907668-.064151-.0417152-.0508431-.3232289-.49572-.3915599-.5997948l.2903003-.3965931c.0545966-.0757528.0882929-.1190888.1199419-.1265958.0238007-.0058009.0454687-.0091279.0616771-.0091279.0212415,0,.0420564-.0116871.0429095-.0333551-.0017061-.0267011-.0274689-.0307959-.0470896-.0307959-.067478,0-.1411834.0040947-.1745385.0040947-.0336963,0-.117468-.0040947-.1869933-.0040947-.024995,0-.0516961.0040947-.0528904.0307959.0008531.0241419.021668.0333551.0365968.0333551.0138198,0,.0375352,0,.0521227.0049478.0157818.003327.0212415.0125402.020815.0150141.0004265.0099809-.0054597.0333551-.0187676.0549378-.0274689.0450422-.1666049.24995-.228282.3408022-.067478-.1116671-.1370033-.2258081-.2115618-.356584-.0091279-.0158671-.0170614-.039156-.0166349-.043336,0-.0016208.0016208-.007507.0137345-.010834.0128814-.003327.0303694-.0049478.0395825-.0049478.0179145,0,.0416299-.0083601.042483-.0333551-.0017061-.0267011-.028322-.0307959-.0512696-.0307959-.0670514,0-.1774389.0040947-.2011543.0040947-.0846247,0-.2287085-.0040947-.271618-.0040947-.0220946.0007678-.0475161.0007678-.0511843.0290897,0,.018341.014161.0350612.0324167.0350612.0162937,0,.0441891.003327.0712315.0116018.0587766.0191941.0917052.0516961.135809.1199419l.3094944.4824121-.3431908.4639857c-.0616771.0833451-.0862456.106634-.1341882.1199419-.0245685.0058862-.0503312.007507-.0611652.007507-.0209003.0008531-.0383882.0150141-.0388148.0350612,0,.020815.0209003.0307959.0404356.0307959h.0307959c.0296016,0,.1167002-.0058009.1503966-.0058009.0441891,0,.1612306.0058009.1724911.0058009h.0324167c.0233742,0,.0496488-.003327.0512696-.0307959-.0020474-.021668-.018341-.0333551-.0366821-.0350612-.0133079,0-.0270424-.0016208-.0387295-.0016208-.0112605,0-.0199619-.006654-.0203884-.014161v-.0024739c-.0004265-.0125402.0083601-.035829.0241419-.060824l.24995-.3866121c.078312.128302.1712115.2833051.2699119.4432561.0037535.0058009.0041801.0099809.0041801.0116018.0004265.0025592-.0017061.003327-.0017061.003327-.0186823.0041801-.0349759.0175733-.0349759.0366821.0054597.031649.032502.0291751.0766912.032502.1465577.0041801.2890207.0041801.3319302.0041801h.0528904c.0212415,0,.0470896-.0058009.0491369-.032502-.0007678-.020815-.0191088-.0333551-.0370233-.0333551ZM28.5378948,35.6357078c-.0254215,0-.0661984-.0016208-.0887195-.0058009-.0474308-.0091279-.0511843-.0225211-.0591179-.068331-.0079336-.071658-.0079336-.209941-.0079336-.3756928v-.3048878c0-.2624049,0-.310774.0037535-.3649441.0062274-.0599709.0125402-.070805.0550231-.0799328.0203884-.0041801.0332698-.0058009.0503312-.0058009.018341,0,.043336-.0100662.043336-.0350612-.0041801-.028322-.0295163-.028322-.0516108-.0290897-.0691841,0-.184946.0040947-.2291351.0040947-.0504165,0-.1724058-.0040947-.2398838-.0040947-.0271277.0007678-.0525492,0-.057497.0290897,0,.024995.024995.0350612.043336.0350612.021668,0,.042483.0016208.060824.0074217.0341229.0125402.0449569.021668.0507578.078312.0021327.0541701.0021327.1025392.0021327.3649441v.3048878c0,.1657518,0,.3040348-.0083601.374072-.007507.0507578-.0124548.0632979-.0416299.070805-.0145875.003327-.0342082.0049478-.0596297.0049478-.0266158,0-.0432507.0167202-.0432507.0333551.0011943.0258481.0266158.032502.0495635.032502.071658,0,.1936473-.0058009.2332298-.0058009.0479426,0,.1703584.0058009.2886795.0058009.0212415,0,.0470896-.0058009.0491369-.032502,0-.018341-.018341-.0333551-.043336-.0333551ZM29.622149,35.6357078c-.0254215,0-.0661984-.0016208-.0887195-.0058009-.0474308-.0091279-.0511843-.0225211-.0591179-.068331-.0083601-.071658-.0083601-.209941-.0083601-.3756928v-.3048878c0-.2624049,0-.310774.0041801-.3649441.0062274-.0599709.0121136-.070805.0550231-.0799328.0203884-.0041801.0332698-.0058009.0503312-.0058009.018341,0,.0429095-.0100662.0429095-.0350612-.0041801-.028322-.0291751-.028322-.0507578-.0290897-.0696107,0-.185799.0040947-.2299881.0040947-.04999,0-.1719793-.0040947-.2394572-.0040947-.0271277.0007678-.0525492,0-.0570705.0290897,0,.024995.0245685.0350612.0429095.0350612.0212415,0,.042483.0016208.060824.0074217.0341229.0125402.0445303.021668.0503312.078312.0025592.0541701.0025592.1025392.0025592.3649441v.3048878c0,.1657518-.0004265.3040348-.0083601.374072-.007507.0507578-.0125402.0632979-.0416299.070805-.0150141.003327-.0342082.0049478-.0599709.0049478-.0262746,0-.042483.0167202-.042483.0333551.0007678.0258481.0257628.032502.0487104.032502.071658,0,.1936473-.0058009.2336564-.0058009.0479426,0,.1703584.0058009.2882529.0058009.021668,0,.0470896-.0058009.0491369-.032502,0-.018341-.0179145-.0333551-.0429095-.0333551ZM30.7064032,35.6357078c-.0258481,0-.0657718-.0016208-.089146-.0058009-.0474308-.0091279-.0507578-.0225211-.0586913-.068331-.0083601-.071658-.0083601-.209941-.0083601-.3756928v-.3048878c0-.2624049,0-.310774.0041801-.3649441.0062274-.0599709.0121136-.070805.0549378-.0799328.0204737-.0041801.0329286-.0058009.0504165-.0058009.018341,0,.0429095-.0100662.0429095-.0350612-.0041801-.028322-.0295163-.028322-.0511843-.0290897-.0691841,0-.1853725.0040947-.2295616.0040947-.0504165,0-.1719793-.0040947-.2394572-.0040947-.0275542.0007678-.0525492,0-.0570705.0290897,0,.024995.0245685.0350612.0429095.0350612.0212415,0,.042483.0016208.0603975.0074217.0345494.0125402.0453834.021668.0507578.078312.0021327.0541701.0021327.1025392.0021327.3649441v.3048878c0,.1657518,0,.3040348-.0079336.374072-.0079336.0507578-.0128814.0632979-.0416299.070805-.0150141.003327-.0342082.0049478-.0599709.0049478-.0262746,0-.0429095.0167202-.0429095.0333551.0007678.0258481.0261893.032502.0491369.032502.071658,0,.1936473-.0058009.2336564-.0058009.0479426,0,.1703584.0058009.2886795.0058009.020815,0,.046663-.0058009.0487104-.032502,0-.0191941-.018341-.0333551-.0429095-.0333551ZM19.9668269,27.2757752v-1.0137905c0-.189126-.1537235-.3432761-.3432761-.3432761-.1894672,0-.3436173.1541501-.3436173.3432761v1.0137905h.6868934ZM21.8241348,27.2757752v-1.0137905c0-.189126-.1537235-.3432761-.3431908-.3432761-.1899791,0-.3437026.1541501-.3437026.3432761v1.0137905h.6868934ZM20.5520342,6.8895525c-.1986804,0-.359911.161205-.359911.3598939,0,.1991069.1612306.3598854.359911.3598854.1991069,0,.3603375-.1607784.3603375-.3598854,0-.1986889-.1612306-.3598939-.3603375-.3598939ZM20.3708417,16.9360336h.3628114v-.7801341h-.3628114v.7801341h0ZM16.9247731,36.6320956c-.1986804,0-.3598257.160804-.3598257.359911s.1611453.359911.3598257.359911c.1991069,0,.3603375-.160804.3603375-.359911s-.1612306-.359911-.3603375-.359911ZM16.7065573,16.9494268v-1.1472109c-.0024739-.2686323-.1345294-.4548579-.3324421-.5418712-.1974008.0870133-.3294563.2732389-.3315037.5422977v1.1467844h.6639457ZM16.7065573,13.2634744v-.7406369c-.0024739-.2690588-.1345294-.4552844-.3324421-.542383-.1974008.0875252-.3294563.2736654-.3315037.542383v.7406369h.6639457ZM16.5512129,20.9331866v-.9614119c0-.0987004-.0795916-.178292-.178292-.178292-.0987857,0-.178292.0795916-.178292.178292v.9614119h.356584ZM16.5512129,23.8268913v-.9605588c0-.0991269-.0795916-.1791451-.178292-.1791451-.0987857,0-.178292.0800181-.178292.1791451v.9605588h.356584ZM16.6565673,27.0600333v-.8530718c0-.1590979-.1291551-.2882529-.2886795-.2882529-.1590979,0-.2882529.1291551-.2882529.2882529v.8530718h.5769324ZM16.3736887,2.9082752c-.1986804,0-.3602522.1611964-.3602522.3598854,0,.1991069.1615718.3598939.3602522.3598939.1987657,0,.359911-.160787.359911-.3598939,0-.1986889-.1611453-.3598854-.359911-.3598854ZM25.0594094,16.9494268v-1.1472109c-.0021327-.2686323-.1345294-.4548579-.3320155-.5418712-.1974008.0870133-.3298828.2732389-.3319302.5422977l.0004265,1.1467844h.6635192ZM25.0594094,13.2634744v-.7406369c-.0021327-.2690588-.1345294-.4552844-.3320155-.542383-.1974008.0875252-.3298828.2736654-.3319302.542383l.0004265.7406369h.6635192ZM24.9044063,20.9331866v-.9614119c0-.0987004-.0799328-.178292-.1786332-.178292-.0983592,0-.178292.0795916-.178292.178292v.9614119h.3569252ZM24.9044063,23.8268913v-.9605588c0-.0991269-.0799328-.1791451-.1786332-.1791451-.0983592,0-.178292.0800181-.178292.1791451v.9605588h.3569252ZM25.0094194,27.0600333v-.8530718c0-.1590979-.1291551-.2882529-.2882529-.2882529-.1595244,0-.2886795.1291551-.2886795.2882529v.8530718h.5769324ZM24.7266261,2.9082752c-.1987657,0-.359911.1611964-.359911.3598854,0,.1991069.1611453.3598939.359911.3598939.1991069,0,.3602522-.160787.3602522-.3598939,0-.1986889-.1611453-.3598854-.3602522-.3598854ZM51.277205,18.221954c-3.2744306,0-4.0120818-1.7832612-4.0120818-3.7663971v-6.7795745h1.9980647v6.6567322c0,1.30665.4307159,2.2289059,2.1523,2.2289059,1.5374059,0,2.1830959-.64569,2.1830959-2.4134253v-6.4722128h1.9831359v6.3488586c0,2.8441412-1.5682871,4.197113-4.3045148,4.197113ZM62.4067204,18.0527898v-4.8885277c0-.7993282-.2158272-1.2762807-.9380377-1.2762807-.9988617,0-1.7828347,1.1379977-1.7828347,2.4755289v3.6892794h-1.9676953v-7.6401107h1.8602083c0,.3535982-.0307959.9529665-.1078283,1.3528865l.0153553.0150141c.4611706-.9068153,1.3529718-1.5370647,2.5983713-1.5370647,1.7211576,0,2.2743746,1.1067753,2.2743746,2.4442212v5.3650536h-1.9519135ZM67.479341,9.4287462c-.6764859,0-1.2146889-.5381177-1.2146889-1.1991886,0-.6456303.538203-1.1837991,1.2146889-1.1837991.6764006,0,1.2296176.5227538,1.2296176,1.1837991,0,.6610709-.553217,1.1991886-1.2296176,1.1991886ZM66.495408,18.0527898v-7.6401107h1.9677806v7.6401107h-1.9677806ZM74.3971558,18.0527898h-1.9984912l-2.8283594-7.6401107h2.1518735l1.2146036,3.4430829c.1840929.5231889.3690388,1.1379977.5074071,1.6911295h.0307959c.1224158-.5223358.2765659-1.1067753.4606587-1.6294524l1.2296176-3.50476h2.0910495l-2.8591553,7.6401107ZM84.2808451,14.5480298h-4.7352307c-.0150141,1.4295777.6914147,2.1209923,2.1059782,2.1209923.7531771,0,1.5678606-.1686523,2.2293324-.4765259l.1840929,1.5220506c-.8146835.3228024-1.7827494.4919665-2.7358011.4919665-2.4292071,0-3.7813259-1.2142623-3.7813259-3.90468,0-2.3363076,1.2912947-4.0583183,3.5813659-4.0583183,2.2284794,0,3.2131801,1.5220506,3.2131801,3.4127136,0,.2612106-.0157818.5685723-.0615918.8918012ZM81.0676651,11.6885333c-.8147688,0-1.3837677.5993682-1.4912547,1.5219653h2.8133453c.0307959-.953393-.4915399-1.5219653-1.3220906-1.5219653ZM90.075674,12.1804145c-1.4145636-.292433-2.1209923.6302494-2.1209923,2.7516683v3.1207071h-1.9676953v-7.6401107h1.8594405c0,.3840529-.04581.9992029-.1382829,1.5369794h.0307959c.3690388-.9684071,1.1071165-1.8136306,2.4292071-1.7061435l-.092473,1.9368994ZM92.7657504,18.2065134c-.553217,0-1.1072018-.0612506-1.5987417-.1382829l.046663-1.6140971c.4756728.1228423,1.059688.2307559,1.6445517.2307559.7530917,0,1.2445464-.3077883,1.2445464-.8151954,0-1.35246-3.0889728-.5839276-3.0889728-3.1819577,0-1.3374459,1.0913347-2.4442212,3.2431228-2.4442212.44573,0,.9380377.0612506,1.3987817.1382829l-.060824,1.5528465c-.4307159-.1232689-.9380353-.1998747-1.4145636-.1998747-.7689565,0-1.1371446.3073618-1.1371446.7838876,0,1.2454848,3.1356358.6918412,3.1356358,3.1669436,0,1.50661-1.3220906,2.5209124-3.4130547,2.5209124ZM98.8380004,9.4287462c-.6764006,0-1.2146035-.5381177-1.2146035-1.1991886,0-.6456303.538203-1.1837991,1.2146035-1.1837991.6764859,0,1.2296176.5227538,1.2296176,1.1837991,0,.6610709-.5531317,1.1991886-1.2296176,1.1991886ZM97.8541552,18.0527898v-7.6401107h1.9676928v7.6401107h-1.9676928ZM104.8003746,18.2065134c-1.6911294,0-2.2293324-.6148088-2.2293324-2.3979847v-3.8738842h-1.3062234v-1.5219653h1.3062234v-2.3522345l1.9676953-.5227538v2.8749883h1.8602935v1.5219653h-1.8602935v3.3511218c0,.9838477.2308412,1.2604135.9072418,1.2604135.3224611,0,.6764859-.04581.9530517-.1228423v1.5832159c-.4923077.1229276-1.0605388.19996-1.5986564.19996ZM112.3763341,18.0527898c0-.44573.01587-.8913747.0775442-1.2912947l-.0158671-.0153553c-.3690388.86092-1.3062234,1.4603735-2.4442211,1.4603735-1.3829146,0-2.1826693-.7839729-2.1826693-2.0140171,0-1.8289858,1.8136305-2.7974782,4.4120017-2.7974782v-.4152753c0-.7993282-.384906-1.214177-1.4912547-1.214177-.6914146,0-1.6145236.2303294-2.2601283.5993682l-.1690788-1.644893c.7688736-.2765659,1.7527212-.4765259,2.7366541-.4765259,2.4600883,0,3.1515029.9992883,3.1515029,2.6596218v3.1819577c0,.6148088.0150169,1.3374459.04581,1.9676953h-1.8602935ZM109.6713289,9.1521804c-.5847779,0-1.0604535-.4769524-1.0604535-1.0609142,0-.5993938.4756756-1.0609227,1.0604535-1.0609227.5840129,0,1.0605388.4615289,1.0605388,1.0609227,0,.5839617-.4765259,1.0609142-1.0605388,1.0609142ZM112.2231224,14.6709575c-2.0752676,0-2.5367794.5993682-2.5367794,1.214177,0,.4919665.3382429.8147688.9072418.8147688.9680658,0,1.6295376-.9222559,1.6295376-1.8444264v-.1845194ZM112.7762541,9.1521804c-.5840129,0-1.060536-.4769524-1.060536-1.0609142,0-.5993938.476523-1.0609227,1.060536-1.0609227s1.0613065.4615289,1.0613065,1.0609227c0,.5839617-.4772936,1.0609142-1.0613065,1.0609142ZM119.0459902,18.2065134c-1.6911294,0-2.2293324-.6148088-2.2293324-2.3979847v-3.8738842h-1.3062234v-1.5219653h1.3062234v-2.3522345l1.9677806-.5227538v2.8749883h1.8602082v1.5219653h-1.8602082v3.3511218c0,.9838477.2307559,1.2604135.9071565,1.2604135.3232289,0,.6764859-.04581.9530517-.1228423v1.5832159c-.4923077.1229276-1.0604535.19996-1.5986564.19996ZM46.8806438,34.2952761v-1.5369794l3.7355159-6.0881172c.2148888-.353257.4302894-.6606188.6764859-.9838477-.3691241.0157818-.8610053.0307959-1.8910895.0307959h-2.39807v-1.7986165h6.7025848v1.5986565l-3.9509165,6.2414142c-.1537235.24577-.2920065.4765259-.4760993.7231489.260784-.0308812.9680658-.0308812,2.2443465-.0308812h2.2442612v1.8444264h-6.8870189ZM60.128251,34.2952761c0-.3531717.0150141-.9529665.0920464-1.3528865l-.0154406-.0150141c-.4610853.9063887-1.3371047,1.5370647-2.5979447,1.5370647-1.7219253,0-2.2751424-1.1072018-2.2751424-2.4442212v-5.3650536h1.95234v4.8885277c0,.7989017.2148888,1.2762807.9530518,1.2762807.9992883,0,1.7677353-1.1379977,1.7677353-2.4751024v-3.689706h1.9677806v7.6401107h-1.8444264ZM57.0071174,25.3947519c-.5840129,0-1.0605388-.4765259-1.0605388-1.0613919,0-.5989417.4765259-1.0604535,1.0605388-1.0604535.5843542,0,1.06088.4615118,1.06088,1.0604535,0,.584866-.4765259,1.0613919-1.06088,1.0613919ZM60.1128104,25.3947519c-.5843542,0-1.06088-.4765259-1.06088-1.0613919,0-.5989417.4765259-1.0604535,1.06088-1.0604535.5840129,0,1.0605388.4615118,1.0605388,1.0604535,0,.584866-.4765259,1.0613919-1.0605388,1.0613919ZM68.1824427,28.4229861c-1.4137105-.292433-2.1209923.6305906-2.1209923,2.751583v3.1207071h-1.9677806v-7.6401107h1.8602936c0,.3840529-.04581.9988617-.1382829,1.5370647h.0307959c.3681858-.9680658,1.1063488-1.8136306,2.4284394-1.7061435l-.092473,1.9368994ZM70.6799809,25.6713178c-.6764859,0-1.2146036-.538203-1.2146036-1.1996748,0-.6447516.5381177-1.1829546,1.2146036-1.1829546s1.2296176.5223358,1.2296176,1.1829546c0,.6614718-.5531317,1.1996748-1.2296176,1.1996748ZM69.6961332,34.2952761v-7.6401107h1.9676953v7.6401107h-1.9676953ZM76.5448492,34.4336444c-2.1209923,0-3.4430829-1.1063488-3.4430829-3.70472,0-2.3826294,1.2453995-4.2120418,3.9512578-4.2120418.5223358,0,1.0755529.0766058,1.5678606.2148888l-.19996,1.7069966c-.4148488-.1540648-.8913747-.2774189-1.3836824-.2774189-1.2454848,0-1.8753076.9222559-1.8753076,2.3676154,0,1.3063088.5073218,2.1985365,1.8136306,2.1985365.5223358,0,1.0913347-.1083401,1.5070366-.3232289l.153297,1.6761154c-.5223358.19996-1.2762807.353257-2.0910495.353257ZM84.8614458,34.2952761v-4.8884424c0-.7997548-.2148888-1.2762807-.9371846-1.2762807-.9997148,0-1.7836024,1.1379977-1.7836024,2.4751024v3.6896207h-1.9677806v-11.2223296h1.9677806v3.2747719c0,.4615971-.0307959,1.1063488-.1382829,1.5529318l.0307959.0149288c.44573-.8605788,1.3220906-1.4294923,2.5058983-1.4294923,1.7211554,0,2.2751402,1.1071165,2.2751402,2.4442212v5.3649683h-1.9527644ZM89.8574605,27.0558533c-1.2463378,0-1.5479009-.6723059-1.5479009-1.4553404v-2.5350733h.9047679v2.4825241c0,.4582701.1449391.7481439.7013956.7481439.5107363,0,.7081348-.2149741.7081348-.8006078v-2.4300602h.8930808v2.3784494c0,1.1021687-.6206097,1.6119644-1.6594782,1.6119644ZM92.2708835,26.9808682v-.7080496l1.2587927-2.1052105c.0632979-.1041601.1332498-.203287.2082348-.3015609-.103307.0058009-.2374099.0116018-.6148088.0116018h-.8114418v-.8122096h2.5342202v.7364568l-1.3278891,2.1343002c-.0466654.0758381-.0924753.1399891-.1508254.220775.0758381-.0116871.29576-.0116871.759831-.0116871h.7422601v.8355838h-2.5983736ZM98.0366248,26.9808682v-1.6303054h-1.4329046v1.6303054h-.9047679v-3.9154288h.9047679v1.5028565h1.4329046v-1.5028565h.9046826v3.9154288h-.9046826ZM0,20.5511811C0,9.2008908,9.2013173,0,20.5511811,0h0c11.3502904,0,20.5511811,9.2008908,20.5511811,20.5511811h0c0,11.3498638-9.2008908,20.5511811-20.5511811,20.5511811h0C9.2013173,41.1023622,0,31.9010449,0,20.5511811h0ZM6.3784602,6.3780422C2.7508237,10.0061052.5077611,15.0154279.5077611,20.5511811h0c0,5.5358386,2.2430626,10.5450759,5.8706991,14.1731901h0c3.6280715,3.6271758,8.6369677,5.8698162,14.1727209,5.8698162h0c5.5358386,0,10.5450759-2.2426403,14.1731901-5.8698162h0c3.6276023-3.6281142,5.8706692-8.6373515,5.8706692-14.1731901h0c0-5.5357533-2.2430669-10.5450759-5.8706692-14.1731389h0C31.096257,2.7504057,26.0870197.5073448,20.5511811.5073448h0c-5.5357533,0-10.5446494,2.2430609-14.1727209,5.8706974h0ZM20.8623817,33.4680524h.1653253v-.2898738h-.3944604v.6422777h.2295616l-.0004265-.3524039ZM20.5511811,1.3379236C9.9428073,1.3379236,1.3433406,9.9373476,1.3433406,20.5453802c0,10.6083738,8.5994666,19.2082755,19.2078405,19.2082755,10.6084592,0,19.2074225-8.5999017,19.207849-19.2082755-.0004265-10.6080326-8.5993899-19.2074566-19.207849-19.2074566ZM18.4247291,36.8445104h-.8701332v.2899591h.8701332v2.1584422c-4.3607322-.4889807-8.2712131-2.46333-11.2148567-5.4065982-.4223729-.4224411-.8247498-.8647588-1.2058766-1.3255029.077476-.4681658.4823524-.8247498.9721947-.8247498.5448399,0,.9863642.4415499.9863642.9864069v.9480186h1.2521558v-.0058009h.0003412v-.9422178c0-.5448569.4415499-.9864069.9864069-.9864069s.9867481.4415499.9867481.9864069v.9480186h1.2521387v-.0058009h0v-.9422178c0-.5448569.4415499-.9864069.9864069-.9864069.5447716,0,.9867481.4415499.9867481.9864069v.9480186h1.2521387v-.0058009h0v-.9422178c0-.5448569.4418912-.9864069.9867481-.9864069s.9864069.4415499.9864069.9864069v.9480186h.785935v3.1740241ZM22.0040476,39.3570627c-.4794263.0366821-.9638005.0558762-1.4528665.0558762-.4881277,0-.9721606-.0191941-1.4512457-.0550231l-.3564987-2.2234462h.4115218c-.1024539-.2441491-.2807459-.670685-.349077-.8439439-.110814-.278272-.028322-.4623649.156624-.5340229.1799981-.0699519.3831998.0291751.4469243.2665849l.1804247.6756328h.2624049l-.0004265.4357491h.0004265l-.0004265.0865868h-.6206097v.2899591h.9097157l.0011943-.3765459h1.1030218l-.0008531-.4357491h.264111l.181619-.6756328c.064151-.2374099.2690588-.3365368.4502513-.2665849.1862256.071658.2687176.2557509.1579036.5340229-.0300281.0758381-.0787385.2008131-.131629.3365368l-.24577.5939939h-.663178v.2899591h.8572518l.1557709-.3765459h.0899991l-.356584,2.2225932ZM19.9542868,32.9998866h1.1954948c.04581.1099609.159951.3873799.2303294.5481839.0487104.1115818.110814.231609.0349759.3548779-.0907668.14579-.2086614.124975-.2920065.1183211-.0041801-.0008531-.0095544,0-.014161-.0008531-.0832598.228282-.3002813.3915599-.5568852.3915599s-.4731989-.1632779-.5568852-.3915599c-.0046066.0008531-.0100662,0-.014161.0008531-.0833451.006654-.2012396.0274689-.2920065-.1183211-.0758381-.1232689-.0137345-.2432961.0349759-.3548779.0703784-.160804.1845194-.438223.2303294-.5481839ZM19.7739474,31.7602881l.3823468.5464778.3907069-.7414047.3903656.7414047.3819202-.5464778-.1515909.9488717h-1.2421578l-.1515909-.9488717ZM20.2308527,34.4436253c.0899991.2498647.3274089.4298629.6090079.4298629.3044613,0,.5585914-.210794.6285433-.4948669.1882729.0091279.3769724.064151.5639657.221628.1799981.1507378.2503766.4106687.2753716.5389707h-3.511414c.024995-.128302.0953734-.388233.2757128-.5389707.3844794-.3232289.7768924-.217448,1.1588127-.156624ZM21.680051,35.4299469c-.132482.4999001-.5864868.8689389-1.1280168.8689389s-.9951082-.3690388-1.1275902-.8689389h2.255607ZM33.8921144,33.8863135c-2.9432682,2.9432682-6.852896,4.9167644-11.2128605,5.4058304v-2.1576744h.7968543c1.4775203,0,2.5454808-.1233542,2.5454808-.1233542,0,0-1.0992683-.1666049-2.5454808-.1666049h-.7968543v-3.1740241h.9526252v-.0058009h0v-.9422178c0-.5448569.4419765-.9864069.9868334-.9864069s.9867481.4415499.9867481.9864069v.9480186h1.2517122v-.0058009h.0004265v-.9422178c0-.5448569.4415499-.9864069.9863216-.9864069.5448569,0,.9864069.4415499.9864069.9864069v.9480186h1.2525653v-.0058009h0v-.9422178c0-.5448569.4414646-.9864069.9867481-.9864069.5448569,0,.9863216.4415499.9863216.9864069v.9480186h1.2521387v-.0058009h0v-.9422178c0-.5448569.4415499-.9864069.9868334-.9864069.4319102,0,.7984752.278272.931725.6656519-.4190288.517388-.8638205,1.0138758-1.3345455,1.4846008ZM35.4374539,32.137687c-.2190688-.4615971-.6889408-.781499-1.2337977-.781499-.7539448,0-1.3654267.6114818-1.3654267,1.3662797v.4406969h-.4940139v-.4406969c0-.7547979-.6114818-1.3662797-1.3657679-1.3662797-.7539448,0-1.3654267.6114818-1.3654267,1.3662797v.4406969h-.4944404v-.4406969c0-.7547979-.6114818-1.3662797-1.3654267-1.3662797-.7543714,0-1.3654267.6114818-1.3654267,1.3662797v.4406969h-.4944404v-.4406969c0-.7547979-.6114818-1.3662797-1.3654267-1.3662797-.754286,0-1.3657679.6114818-1.3657679,1.3662797v.4406969h-.5094545c-.1549178-1.0221506-1.0351173-1.8069766-2.1006039-1.8069766s-1.9452595.784826-2.1006039,1.8069766h-.5244685v-.4406969c0-.7547979-.6113965-1.3662797-1.3653413-1.3662797-.7543714,0-1.3658532.6114818-1.3658532,1.3662797v.4406969h-.4944404v-.4406969c0-.7547979-.6110553-1.3662797-1.3654267-1.3662797-.7539448,0-1.3654267.6114818-1.3654267,1.3662797v.4406969h-.4944404v-.4406969c0-.7547979-.6114818-1.3662797-1.3653413-1.3662797-.7543714,0-1.3658532.6114818-1.3658532,1.3662797v.4406969h-.4940309v-.4406969c0-.7547979-.6114818-1.3662797-1.3654181-1.3662797-.5406683,0-1.0071877.3149541-1.2287902.770665-.3328174-.427389-.6464663-.869792-.9422092-1.3255029h31.6736416c-.2982339.4590379-.6148088.905621-.9505779,1.3363369ZM36.7050332,30.2965022H4.3978152c-.0941365-.1549178-.1849374-.3123949-.2749109-.4706397h32.8565621c-.0899138.1582448-.1807659.3157219-.2744332.4706397ZM17.2963711,6.0473148v.1586969c-.0041801.0320755-.0128814.0795575-.0291751.1237125-.0274689.072477-.0949469.1874455-.184946.3282364-.0341229.0558165-.0940938.1486989-.1603775.2824094-.0861602-.1316204-.1582448-.2182669-.209941-.2724114-.0570705-.059988-.1323967-.136628-.1945004-.209523-.1341029-.1586969-.1411834-.2540874-.1411834-.2540874v.000418s-.0046066.0949725-.1387095.2536694c-.0621036.072895-.1375152.1495349-.1945004.209523-.0521227.0549805-.1254015.1428725-.2132679.2774104-.0679045-.1374555-.1291551-.2324279-.1637045-.2899079-.0899991-.140791-.1579036-.2557594-.184946-.3282364-.0258481-.0687235-.0346347-.1486989-.0354025-.1566154v-.1232945h1.8506539ZM15.4486177,5.7573984c.014161-.2374269.0787385-.6864498.3086414-.9930267.174965-.2378449.3482239-.3790454.4748197-.4606929.0583501-.037902.1050131-.061643.1387095-.077476.0342082.015833.0808712.039574.139136.077476.1266812.0816475.29994.2228479.474905.4606929.2299028.3065769.2944804.7555998.3090679.9930267h-1.8452795ZM17.3638491,6.8141581c.0524639.072477.106634.1787015.1661784.3065769.0812124.1995164.1028805.3940424.1057809.5373328v2.1264093h-.5476721c.0003412-.4677392.0003412-1.497849.0003412-2.1259913.0021327-.14579.0279808-.3490599.1058662-.5394229.0666249-.1495349.1199419-.2345094.1695054-.3049049ZM16.7898171,7.6722288l-.0007678,2.1122483h-.8297829c-.0004265-.5889607-.0012796-2.1126663-.0012796-2.1139118.0070805-.1382915.0175733-.3294819.1171268-.5260894.1049278-.2066054.3019874-.3294819.3019874-.3294819h.0007678s.1870786.1228765.2915799.3294819c.1050131.2070235.1145675.3861344.1203684.5277528ZM15.563953,7.1169815c.0778855.189945.0908521.3957144.0928995.5415044l.0024739,2.1259913h-.5405916l-.0004265-2.1284908c.0029004-.1432905.0186823-.3382259.0995535-.5373328.0599709-.127884.1170414-.2341.1661784-.3065769.0620183.0903915.1203684.1774475.1799128.3049049ZM18.054496,10.1319333v.6872346h-3.3631501v-.6872346h3.3631501ZM18.054496,11.109127v2.6795837h-.8139158v-1.2059022c.0007678-.4002613-.1474961-.7385042-.3915599-.9705397-.1312024-.1254015-.2886795-.2199219-.4627914-.2798928-.010834-.0037535-.0099809-.0041801-.0099809-.0041801,0,0-.0021327.0004265-.0129667.0041801-.1741119.0599709-.3319302.1544913-.4635592.2798928-.2437226.2320355-.3919865.570705-.3911334.9705397v1.2059022h-.8172427v-2.6795837h3.3631501ZM16.9506211,12.5828084v1.2059022h-1.1517322l-.0004265-1.2059022c.0041801-.4661184.2333151-.7893473.5756528-.9405116.3428495.1507378.5723258.4739667.5765059.9405116ZM18.054496,14.0785844v3.4076804h-.7472909v-1.7015369c0-.3994082-.14997-.7468643-.4011143-.985895-.1341882-.128302-.2937126-.2233342-.4690189-.2844994-.0083601-.0037535-.0633832-.0204737-.0633832-.0204737,0,0-.0520374.0171467-.0574117.0191941-.1762446.060824-.338243.157477-.4736254.2861203-.2511443.2386895-.4015409.5869134-.4006878.9855538v1.7015369h-.7506178v-3.4076804h3.3631501ZM17.017246,15.7868606v1.6994042h-1.2854085v-1.7015369c.0004265-.3274089.1199419-.5931408.310774-.7756128.0949469-.0903403.206614-.1573917.3315037-.2061874h.0012796c.1262546.0492222.235789.1158471.3303094.2058462.1915999.1828133.310774.4481186.3112006.7759541l.0003412.0021327ZM18.054496,17.776224v4.0562709h-3.3631501v-4.0562709h3.3631501ZM18.054496,22.1223687v2.6467404h-3.3631501v-2.6467404h3.3631501ZM18.054496,25.0589829v4.4761528h-3.3631501v-4.4761528h3.3631501ZM21.0143991,14.1077595v1.2075231l-.4623649-.4623649-.4615118.4615118v-1.20667h.9238767ZM20.1038303,13.7599621l.338243-1.4462126.139136-2.4184584.082492,2.4171788.3378164,1.4474922h-.8976874ZM20.5520342,15.3448842l2.1410395,2.1413807h-4.282079l2.1410395-2.1413807ZM22.694268,17.776224v1.6386655h-4.2965812v-1.6386655h4.2965812ZM22.694268,19.9222113v1.9102836h-1.3433321v-.478232c0-.4402703-.3573518-.7989017-.7989017-.7989017-.4411234,0-.7989017.3586314-.7989017.7989017v.478232h-1.3554457v-1.9102836h4.2965812ZM19.7531325,22.1223687v1.7045227h1.5978034v-1.7045227h1.3433321v2.6467404h-4.2965812v-2.6467404h1.3554457ZM22.694268,25.0589829v4.4761528h-4.2965812v-4.4761528h4.2965812ZM25.6496498,6.0473148v.1586969c-.0046066.0320755-.0133079.0795575-.0296016.1237125-.0270424.072477-.0949469.1874455-.184946.3282364-.0341229.0558165-.0940938.1486989-.1603775.2824094-.085819-.1316204-.1582448-.2182669-.209941-.2724114-.056644-.059988-.1323967-.136628-.1940738-.209523-.1345294-.1586969-.1416099-.2540874-.1416099-.2540874v.000418s-.0041801.0949725-.1387095.2536694c-.0621036.072895-.1374299.1495349-.1945004.209523-.0521227.0549805-.1254015.1428725-.2129267.2774104-.0678192-.1374555-.1290698-.2324279-.1640457-.2899079-.0899991-.140791-.157477-.2557594-.184946-.3282364-.0262746-.0695595-.0346347-.150789-.0354025-.1574515v-.1224585h1.8510804ZM23.8014698,5.7573984c.0145875-.2374269.0787385-.6864498.3086414-.9930267.174965-.2378449.3482239-.3790454.4748197-.4606929.0583501-.037902.1050131-.061643.139136-.077476.0342082.015833.0807859.039574.139136.077476.1265958.0816475.29994.2228479.4748197.4606929.2299881.3065769.2941391.7555998.3087267.9930267h-1.8452795ZM25.7171277,6.8141581c.0520374.072477.1062074.1787015.1657518.3065769.0812124.1995164.1028805.3940424.1057809.5373328v2.1264093h-.5473308v-2.1259913c.0025592-.14579.028322-.3490599.1062927-.5394229.0661984-.1495349.1195154-.2345094.1695054-.3049049ZM25.1426692,7.6722288l-.0007678,2.1122483h-.8297829c-.0004265-.5889607-.0008531-2.1126663-.0008531-2.1139118.006654-.1382915.0171467-.3294819.1170414-.5260894.1045866-.2066054.3016462-.3294819.3016462-.3294819h.0007678s.1870786.1228765.2920065.3294819c.1045866.2070235.114141.3861344.1199419.5277528ZM23.9168051,7.1169815c.0778855.189945.0908521.3957144.0928995.5415044l.0029004,2.1259913h-.5414446v-2.1284908c.003327-.1432905.0186823-.3382259.09998-.5373328.0595444-.127884.1166149-.2341.1657518-.3065769.0620183.0903915.1203684.1774475.1799128.3049049ZM26.4073481,10.1319333v.6872346h-3.3631501v-.6872346h3.3631501ZM26.4073481,11.109127v2.6795837h-.8134892v-1.2059022c.0003412-.4002613-.1479226-.7385042-.3915599-.9705397-.131629-.1254015-.289106-.2199219-.463218-.2798928-.010834-.0037535-.0099809-.0041801-.0099809-.0041801,0,0-.0021327.0004265-.0129667.0041801-.1741119.0599709-.3319302.1544913-.4631327.2798928-.2437226.2320355-.3919865.570705-.3915599.9705397v1.2059022h-.8172427v-2.6795837h3.3631501ZM25.3038998,12.5828084v1.2059022h-1.1521587l-.0004265-1.2059022c.0041801-.4661184.2333151-.7893473.5756528-.9405116.3428495.1507378.5727524.4739667.5769324.9405116ZM26.4073481,14.0785844v3.4076804h-.7472909v-1.7015369c.0004265-.3994082-.14997-.7468643-.4011143-.985895-.1341882-.128302-.2937126-.2233342-.4690189-.2844994-.0079336-.0037535-.0629567-.0204737-.0629567-.0204737,0,0-.0520374.0171467-.0578383.0191941-.1762446.060824-.338243.157477-.4736254.2861203-.2511443.2386895-.4011143.5869134-.4006878.9855538v1.7015369h-.7506178v-3.4076804h3.3631501ZM25.3700982,15.7868606v1.6994042h-1.284982v-1.7015369c0-.3274089.1199419-.5931408.310774-.7756128.0945204-.0903403.2065287-.1573917.3310771-.2061874h.0012796c.1265958.0492222.2362156.1158471.3307359.2058462.1911734.1828133.310774.4481186.3111153.7759541v.0021327ZM26.4073481,17.776224v4.0562709h-3.3631501v-4.0562709h3.3631501ZM26.4073481,22.1223687v2.6467404h-3.3631501v-2.6467404h3.3631501ZM26.4073481,25.0589829v4.4761528h-3.3631501v-4.4761528h3.3631501ZM26.9242243,29.5351357V9.7844771h-.4239767v-2.1776448c-.0046066-.2711659-.043336-.4423604-.1633632-.7201973-.0303694-.0699775-.0741319-.1470354-.1232689-.2236754v-.7864298s-.0008531-.6173083-.2557509-1.0821642c-.2774189-.5073474-.8155366-.7847578-1.0776002-.8951453-.0603975-.028322-.09998-.0412375-.1074017-.042901l-.0437626-.014997-.0541701.014997c-.0262746.0074985-.4519574.1424545-.8568253.6935388-.3669915.5060934-.3798729,1.1538137-.3827733,1.3333341,0,.029158.0008531.0462365.0008531.0483265v.7247698c-.0487957.0716495-.1171268.180365-.1916852.3403159-.1124349.2761649-.1203684.5319244-.1241219.6860403v2.1018323h-.4261093v7.2107596l-1.1670875-1.1671728v-2.0581209l-.3961665-1.3278915-.5789798-4.5565548v.000418l-.427389,4.3653047-.3973608,1.5200033v1.9064448l-1.1563388,1.1563388v-7.0495291h-.4239767l.0003412-2.1776448c-.0045213-.2711659-.0432507-.4423604-.1636192-.7201973-.0300281-.0699775-.0742172-.1470354-.1229276-.2236754v-.7864298s-.0012796-.6173083-.2557509-1.0821642c-.2778455-.5073474-.8159631-.7847578-1.0776002-.8951453-.060824-.028322-.09998-.0412375-.107487-.042901l-.0436773-.014997-.0537435.014997c-.0270424.0074985-.452384.1424545-.8572518.6935388-.3669915.5060934-.3798729,1.1538137-.3827733,1.3333341,0,.029158.0004265.0462365.0004265.0483265v.7247698c-.0483692.0716495-.1167002.180365-.1915999.3403159-.1120936.2761649-.1200272.5319244-.1237807.6860403v2.1018323h-.4261093v19.7506586H3.9637809c-1.4520476-2.6725032-2.2792968-5.7332394-2.2792968-8.9897555,0-5.2100505,2.1110199-9.9257458,5.5253884-13.3409248C10.6250941,3.7900869,15.3407041,1.678649,20.5511811,1.678649s9.9261724,2.1114379,13.3409333,5.5258064c3.4143344,3.4151789,5.5257723,8.1308743,5.5261988,13.3409248-.0004265,3.2565161-.8276502,6.3172523-2.2796637,8.9897555h-10.2144253Z"/>
</svg>